<svg xmlns="http://www.w3.org/2000/svg" viewBox="0 0 1000 1002"><defs><style>.cls-1{fill:#ffca28;}.cls-2{fill:#121e24;}</style></defs><title>insta</title><g id="Laag_2" data-name="Laag 2"><g id="Laag_5" data-name="Laag 5"><rect class="cls-1" width="1000" height="1002"/><path class="cls-2" d="M500,197.51c98.52,0,110.21.37,149.14,2.15,100,4.55,146.71,52,151.26,151.26,1.78,38.9,2.12,50.58,2.12,149.11s-.37,110.21-2.12,149.11c-4.58,99.17-51.17,146.71-151.26,151.26-38.93,1.78-50.55,2.15-149.14,2.15s-110.21-.37-149.11-2.15c-100.24-4.58-146.71-52.24-151.26-151.29-1.78-38.9-2.15-50.55-2.15-149.11s.4-110.18,2.15-149.11c4.58-99.23,51.17-146.71,151.26-151.26C389.82,197.88,401.48,197.51,500,197.51ZM500,131c-100.21,0-112.76.43-152.12,2.21-134,6.15-208.49,80.5-214.64,214.64C131.43,387.24,131,399.79,131,500s.43,112.79,2.21,152.15c6.15,134,80.5,208.49,214.64,214.63C387.24,868.57,399.79,869,500,869s112.79-.43,152.15-2.21c133.89-6.15,208.55-80.5,214.6-214.63C868.57,612.79,869,600.21,869,500s-.43-112.76-2.21-152.12c-6-133.89-80.47-208.49-214.6-214.64C612.79,131.43,600.21,131,500,131Zm0,179.52c-104.64,0-189.48,84.84-189.48,189.48S395.36,689.51,500,689.51,689.48,604.67,689.48,500,604.64,310.52,500,310.52ZM500,623A123,123,0,1,1,623,500,123,123,0,0,1,500,623ZM697,258.77A44.28,44.28,0,1,0,741.23,303,44.3,44.3,0,0,0,697,258.77Z"/></g></g></svg>