<svg xmlns="http://www.w3.org/2000/svg" viewBox="0 0 1000.82 1000.82"><defs><style>.cls-1{fill:#ffca28;}.cls-2{fill:#121e24;}.cls-3{fill:#eab600;}.cls-4{fill:#dda800;}</style></defs><title>tel_1</title><g id="Laag_2" data-name="Laag 2"><g id="Laag_7" data-name="Laag 7"><rect class="cls-1" width="1000.82" height="1000.82"/><circle class="cls-2" cx="500" cy="500" r="369"/><path class="cls-3" d="M432.35,669.13c-12,0-9.92-4.51-14-15.9l-35.15-115.7L653.75,377"/><path class="cls-4" d="M432.35,669.13c9.22,0,13.3-4.22,18.45-9.23L500,612.06l-61.37-37"/><path class="cls-1" d="M438.62,575.06,587.33,684.93c17,9.36,29.22,4.52,33.44-15.75l60.53-285.25c6.2-24.85-9.47-36.12-25.71-28.75L300.16,492.24C275.9,502,276,515.5,295.74,521.54L387,550,598.12,416.78c10-6,19.12-2.8,11.61,3.87"/></g></g></svg>