<svg xmlns="http://www.w3.org/2000/svg" xmlns:xlink="http://www.w3.org/1999/xlink" viewBox="0 0 1000 1000"><defs><style>.cls-1{fill:#f9f9f9;}.cls-2{fill:#08c;}.cls-3{fill:#c8daea;}.cls-4{fill:#a9c9dd;}.cls-5{fill:url(#Naamloos_verloop_2);}</style><linearGradient id="Naamloos_verloop_2" x1="-2019.72" y1="-1182.72" x2="-2019.13" y2="-1183.84" gradientTransform="matrix(130.49, 0, 0, -109.45, 264084.61, -128938.91)" gradientUnits="userSpaceOnUse"><stop offset="0" stop-color="#eff7fc"/><stop offset="1" stop-color="#fff"/></linearGradient></defs><title>telh</title><g id="Laag_2" data-name="Laag 2"><g id="Laag_7" data-name="Laag 7"><rect class="cls-1" width="1000" height="1000"/><circle class="cls-2" cx="500" cy="500" r="369"/><path class="cls-3" d="M432.24,669.13c-12,0-9.95-4.51-14.08-15.9l-35.23-115.7L654.13,377"/><path class="cls-4" d="M432.24,669.13c9.25,0,13.33-4.22,18.49-9.23L500,612.06l-61.51-37"/><path class="cls-5" d="M438.53,575.06l149,109.87c17,9.36,29.28,4.52,33.52-15.75l60.67-285.25c6.21-24.85-9.49-36.12-25.76-28.75L299.76,492.24c-24.32,9.73-24.17,23.27-4.43,29.3L386.74,550,598.38,416.78c10-6,19.16-2.8,11.63,3.87"/></g></g></svg>