<svg xmlns="http://www.w3.org/2000/svg" viewBox="0 0 1000 1000"><defs><style>.cls-1{fill:#00aced;}.cls-2{fill:#fff;}</style></defs><title>twith</title><g id="Laag_2" data-name="Laag 2"><g id="Laag_6" data-name="Laag 6"><rect class="cls-1" width="1000" height="1000"/><path class="cls-2" d="M869.1,272.57a304.23,304.23,0,0,1-87,23.68A150.9,150.9,0,0,0,848.69,213a304.88,304.88,0,0,1-96.23,36.51A151.79,151.79,0,0,0,641.85,202C544,202,472.13,292.65,494.22,386.73A431.21,431.21,0,0,1,181.92,229.55c-39.7,67.62-20.59,156.08,46.87,200.88a151.71,151.71,0,0,1-68.6-18.82C158.53,481.3,208.85,546.51,281.72,561a152.94,152.94,0,0,1-68.44,2.57c19.27,59.77,75.21,103.25,141.57,104.47a306.25,306.25,0,0,1-224.35,62.33A431.21,431.21,0,0,0,362.78,798c281.35,0,440.3-235.92,430.7-447.53A307.3,307.3,0,0,0,869.1,272.57Z"/></g></g></svg>