<svg xmlns="http://www.w3.org/2000/svg" viewBox="0 0 1000.41 1000.41"><defs><style>.cls-1{fill:#ffca28;}.cls-2{fill:#121e24;}</style></defs><title>Middel 6</title><g id="Laag_2" data-name="Laag 2"><g id="Laag_6" data-name="Laag 6"><rect class="cls-1" width="1000.41" height="1000.41"/><path class="cls-2" d="M869.3,272a304.23,304.23,0,0,1-87,23.68,150.9,150.9,0,0,0,66.63-83.24,304.88,304.88,0,0,1-96.23,36.51,151.79,151.79,0,0,0-110.61-47.51c-97.83,0-169.73,90.63-147.63,184.71A431.21,431.21,0,0,1,182.12,229C142.42,296.58,161.53,385,229,429.83A151.71,151.71,0,0,1,160.4,411c-1.66,69.7,48.66,134.91,121.53,149.42A152.94,152.94,0,0,1,213.48,563C232.75,622.77,288.7,666.25,355,667.47A306.25,306.25,0,0,1,130.7,729.8,431.21,431.21,0,0,0,363,797.39c281.35,0,440.3-235.92,430.7-447.53A307.3,307.3,0,0,0,869.3,272Z"/></g></g></svg>