<svg xmlns="http://www.w3.org/2000/svg" viewBox="0 0 1000 1000"><defs><style>.cls-1{fill:#eab600;}</style></defs><title>Middel 4</title><g id="Laag_2" data-name="Laag 2"><g id="Laag_4" data-name="Laag 4"><path class="cls-1" d="M508.26,554.59l5.3,4.44c50.39-20.54,59-26.18,84.13-65.58,19.93-31.26,56.36-91.54,93.56-153.78C637,387.52,584.43,434.3,557.43,459.5,523.29,491.43,519.37,501,508.26,554.59Z"/><path class="cls-1" d="M274,805.12c57.25,7,124.64-20.6,129.53-98.64l-26.67-22.26C332.89,693.71,327.14,756,274,805.12Z"/><path class="cls-1" d="M0,0V1000H1000V0ZM132.61,787.73c168.54,14,108.17-165.08,264.09-166.7l67.54,56.36C481,880.83,232.17,926.2,132.61,787.73ZM864.17,168.19S701.81,444.07,649.37,526.33c-41.42,65.06-65,69.62-146.74,103.27l-61.72-51.46c18.22-86.7,18.46-110.74,74.73-163.37,71.21-66.53,312.68-276.46,312.68-276.46C848.37,121.41,877.09,145.29,864.17,168.19Z"/></g></g></svg>