<svg xmlns="http://www.w3.org/2000/svg" viewBox="0 0 1000 1000"><defs><style>.cls-1{fill:#eab600;}</style></defs><title>Middel 6</title><g id="Laag_2" data-name="Laag 2"><g id="Laag_6" data-name="Laag 6"><rect class="cls-1" x="348.5" y="399" width="303" height="202"/><rect class="cls-1" x="247.5" y="424.25" width="50.5" height="50.5"/><rect class="cls-1" x="247.5" y="323.25" width="50.5" height="50.5"/><rect class="cls-1" x="247.5" y="626.25" width="50.5" height="50.5"/><rect class="cls-1" x="247.5" y="525.25" width="50.5" height="50.5"/><rect class="cls-1" x="702" y="323.25" width="50.5" height="50.5"/><rect class="cls-1" x="702" y="626.25" width="50.5" height="50.5"/><rect class="cls-1" x="702" y="424.25" width="50.5" height="50.5"/><path class="cls-1" d="M0,0V1000H1000V0ZM803,777.75H752.5v-50.5H702v50.5H651.5v-101h-303v101H298v-50.5H247.5v50.5H197V222.25h50.5v50.5H298v-50.5h50.5v101h303v-101H702v50.5h50.5v-50.5H803Z"/><rect class="cls-1" x="702" y="525.25" width="50.5" height="50.5"/></g></g></svg>