<svg xmlns="http://www.w3.org/2000/svg" viewBox="0 0 1000 1000"><defs><style>.cls-1{fill:#ffca28;}</style></defs><title>instaicon</title><g id="Laag_2" data-name="Laag 2"><g id="Laag_1-2" data-name="Laag 1"><path class="cls-1" d="M500,90.13c133.5,0,149.33.5,202.08,2.92,135.5,6.17,198.79,70.46,205,205,2.42,52.71,2.88,68.54,2.88,202s-.5,149.33-2.88,202c-6.21,134.38-69.33,198.79-205,205C649.33,909.46,633.58,910,500,910s-149.33-.5-202-2.92C162.13,900.83,99.17,836.25,93,702c-2.42-52.71-2.92-68.5-2.92-202S90.62,350.71,93,298C99.21,163.5,162.33,99.17,298,93,350.71,90.63,366.5,90.13,500,90.13ZM500,0C364.21,0,347.21.58,293.88,3,112.29,11.33,11.37,112.08,3,293.83.58,347.21,0,364.21,0,500S.58,652.83,3,706.17C11.33,887.75,112.08,988.67,293.83,997c53.38,2.42,70.38,3,206.17,3s152.83-.58,206.17-3C887.58,988.67,988.75,887.92,997,706.17c2.46-53.33,3-70.38,3-206.17s-.58-152.79-3-206.13C988.83,112.46,888,11.37,706.21,3,652.83.58,635.79,0,500,0Zm0,243.25c-141.79,0-256.75,115-256.75,256.75S358.21,756.79,500,756.79,756.75,641.83,756.75,500,641.79,243.25,500,243.25Zm0,423.42A166.67,166.67,0,1,1,666.67,500,166.65,166.65,0,0,1,500,666.67ZM766.92,173.12a60,60,0,1,0,60,60A60,60,0,0,0,766.92,173.12Z"/></g></g></svg>